<?xml version="1.0" standalone="no"?>
<!DOCTYPE svg PUBLIC "-//W3C//DTD SVG 20010904//EN"
 "http://www.w3.org/TR/2001/REC-SVG-20010904/DTD/svg10.dtd">
<svg version="1.0" xmlns="http://www.w3.org/2000/svg"
 width="399.000000pt" height="378.000000pt" viewBox="0 0 399.000000 378.000000"
 preserveAspectRatio="xMidYMid meet">

<g transform="translate(0.000000,378.000000) scale(0.100000,-0.100000)"
fill="#000000" stroke="none">
<path d="M1733 3666 c-137 -44 -255 -176 -336 -376 -145 -357 -97 -914 123
-1433 30 -68 30 -72 13 -85 -40 -31 -287 -148 -427 -204 -227 -90 -261 -97
-461 -95 -145 1 -175 -2 -203 -17 -26 -13 -31 -20 -22 -31 8 -10 4 -18 -19
-34 -37 -26 -130 -182 -184 -306 -66 -152 -120 -363 -130 -509 -13 -189 84
-331 274 -397 89 -31 276 -32 400 -1 296 73 607 267 880 548 86 90 243 278
267 320 9 16 23 9 126 -57 235 -149 489 -359 534 -440 15 -27 47 -85 71 -130
48 -86 114 -169 136 -169 7 0 15 7 19 15 4 12 11 12 40 -6 31 -18 51 -20 178
-20 200 1 389 37 584 112 165 64 226 115 280 234 84 183 -2 424 -227 640 -272
260 -666 425 -1206 505 l-83 12 0 62 c0 100 19 291 45 456 37 228 49 273 97
343 53 78 138 244 138 270 0 10 -9 21 -20 24 -15 4 -20 14 -20 38 0 30 -16 66
-76 174 -42 76 -172 241 -251 319 -94 93 -217 187 -290 223 -58 29 -184 36
-250 15z m224 -22 c29 -8 54 -18 57 -22 2 -4 -28 -8 -67 -7 -62 0 -82 -5 -139
-33 -215 -106 -358 -442 -358 -842 0 -246 38 -473 125 -737 l55 -168 -21 -17
c-12 -10 -27 -18 -34 -18 -17 0 -75 139 -130 314 -86 271 -109 418 -110 686 0
217 11 291 69 462 42 123 85 197 161 274 119 121 234 152 392 108z m116 -75
c26 -13 47 -25 47 -28 0 -4 -29 -4 -65 -3 -52 3 -75 -1 -118 -21 -99 -45 -163
-117 -237 -265 -146 -293 -156 -788 -24 -1245 l35 -122 -22 -17 c-11 -10 -27
-18 -34 -18 -14 0 -78 181 -115 325 -61 237 -86 555 -60 762 35 279 138 499
280 598 98 68 217 81 313 34z m76 -67 c35 -26 37 -39 4 -35 -16 3 -55 -6 -88
-18 -168 -63 -305 -332 -346 -679 -22 -191 -1 -494 50 -730 12 -52 21 -97 21
-101 0 -14 -52 -41 -62 -31 -16 16 -75 245 -99 383 -31 179 -34 524 -6 664 63
317 187 507 367 566 39 13 131 2 159 -19z m61 -74 c27 -29 22 -39 -31 -57 -70
-23 -155 -116 -211 -231 -56 -116 -72 -161 -97 -287 -46 -224 -50 -476 -12
-736 l17 -119 -30 -24 c-17 -13 -34 -20 -38 -16 -11 11 -55 257 -69 380 -17
161 -7 457 21 584 68 322 220 526 392 528 26 0 43 -7 58 -22z m59 -93 l20 -35
-46 -35 c-116 -88 -206 -265 -252 -491 -33 -164 -43 -298 -40 -513 l4 -204
-27 -20 c-15 -11 -30 -18 -34 -15 -3 4 -13 51 -22 105 -23 141 -22 522 1 658
54 308 170 519 315 571 53 19 58 18 81 -21z m49 -114 l20 -49 -35 -33 c-21
-21 -60 -86 -99 -164 -93 -189 -130 -359 -141 -658 l-6 -169 -36 -34 -36 -34
-8 53 c-15 95 -1 500 21 608 41 197 108 358 186 446 36 41 90 83 107 83 4 0
15 -22 27 -49z m66 23 c3 -8 2 -12 -4 -9 -6 3 -10 10 -10 16 0 14 7 11 14 -7z
m65 -134 c0 -9 -4 -8 -9 5 -5 11 -9 27 -9 35 0 9 4 8 9 -5 5 -11 9 -27 9 -35z
m-86 -25 c14 -49 14 -51 -15 -108 -50 -100 -98 -228 -123 -327 -26 -104 -55
-295 -55 -365 0 -39 -4 -47 -42 -80 l-43 -36 -3 108 c-6 231 46 508 131 686
53 111 113 196 128 180 4 -4 14 -30 22 -58z m54 33 c-3 -8 -6 -5 -6 6 -1 11 2
17 5 13 3 -3 4 -12 1 -19z m72 -122 c1 -67 -5 -55 -12 24 -4 40 -2 57 3 45 5
-11 9 -42 9 -69z m30 12 c1 -16 -3 -28 -9 -28 -6 0 -10 24 -9 53 1 41 3 47 9
27 4 -14 8 -37 9 -52z m-62 -10 c-2 -13 -4 -3 -4 22 0 25 2 35 4 23 2 -13 2
-33 0 -45z m93 14 c0 -15 -2 -15 -10 -2 -13 20 -13 33 0 25 6 -3 10 -14 10
-23z m-152 -106 c11 -84 11 -85 -27 -203 -22 -65 -49 -168 -61 -228 -21 -105
-24 -112 -68 -157 -26 -27 -49 -48 -52 -48 -19 0 32 320 72 454 30 103 102
266 117 266 5 0 13 -38 19 -84z m137 -48 c-9 -45 -23 -95 -31 -112 -8 -17 -12
-23 -9 -13 4 15 19 91 41 212 6 30 9 34 12 17 2 -13 -4 -60 -13 -104z m25 -20
c-11 -25 -18 -32 -15 -18 3 14 11 57 18 95 l12 70 3 -52 c2 -37 -3 -65 -18
-95z m-49 57 c-8 -46 -9 -47 -10 -13 -1 34 8 73 15 66 2 -2 -1 -26 -5 -53z
m64 -137 c-25 -51 -55 -104 -66 -118 -17 -21 -17 -18 4 25 13 28 37 82 52 120
32 82 48 107 53 82 2 -9 -17 -59 -43 -109z m-158 -90 c-7 -126 -22 -179 -64
-228 -20 -22 -37 -39 -39 -38 -12 13 83 358 99 358 6 0 8 -33 4 -92z m-196
-436 c-5 -10 -18 -25 -27 -33 -11 -9 -9 -2 6 19 26 35 36 42 21 14z m83 -41
c-9 -23 -18 -40 -20 -38 -2 2 4 22 13 45 9 23 18 40 20 38 2 -2 -4 -22 -13
-45z m-89 -11 c-15 -23 -29 -39 -32 -37 -3 3 8 24 23 46 37 51 43 45 9 -9z
m109 -91 c-19 -68 -40 -128 -45 -134 -14 -13 -5 25 38 158 19 60 36 107 39
105 2 -3 -12 -60 -32 -129z m-199 71 c-21 -22 -41 -37 -44 -35 -2 3 13 23 34
45 21 22 41 37 44 35 2 -3 -13 -23 -34 -45z m109 3 c-35 -62 -54 -89 -54 -80
0 17 66 127 76 127 3 0 -6 -21 -22 -47z m76 -28 c-12 -36 -24 -64 -27 -61 -3
3 5 35 18 70 12 36 25 64 27 62 2 -3 -6 -35 -18 -71z m-50 21 c-10 -28 -54
-114 -69 -136 -10 -13 -11 -13 -11 0 0 15 77 160 85 160 3 0 0 -11 -5 -24z
m101 -48 c-20 -96 -73 -278 -81 -278 -12 0 7 90 44 208 20 63 36 121 37 130 0
11 2 12 6 5 2 -7 0 -37 -6 -65z m-214 30 c-32 -45 -67 -83 -67 -72 0 15 71
107 77 100 3 -3 -2 -16 -10 -28z m-120 -75 c-23 -23 -37 -31 -42 -24 -4 7 9
26 32 47 48 44 58 24 10 -23z m114 14 c-23 -38 -61 -75 -61 -60 0 14 71 105
77 99 3 -3 -4 -20 -16 -39z m89 -59 c-37 -85 -56 -109 -47 -61 7 34 66 147 74
139 2 -2 -10 -37 -27 -78z m-70 39 c0 -22 -63 -113 -68 -99 -3 11 56 112 66
112 1 0 2 -6 2 -13z m-100 -9 c0 -14 -50 -68 -62 -68 -15 0 -8 18 18 49 27 32
44 40 44 19z m-90 -22 c0 -8 -15 -29 -32 -45 -32 -30 -33 -30 -36 -10 -3 14 6
30 25 45 33 27 43 29 43 10z m258 -97 c-26 -66 -34 -78 -36 -57 -3 26 54 155
64 145 3 -3 -10 -42 -28 -88z m-183 26 c-14 -19 -30 -35 -36 -35 -18 0 -8 26
23 59 40 42 50 24 13 -24z m88 -33 c-23 -39 -28 -43 -31 -25 -4 27 51 115 56
89 2 -9 -9 -38 -25 -64z m-153 44 c0 -20 -39 -66 -56 -66 -22 0 -17 21 13 52
29 31 43 35 43 14z m-94 -7 c6 -10 -42 -69 -57 -69 -4 0 -9 9 -12 20 -3 14 3
26 21 40 31 23 38 24 48 9z m459 -176 c-5 -37 -10 -43 -30 -43 -13 0 -27 4
-30 10 -3 5 9 58 27 117 l33 108 3 -75 c2 -41 0 -94 -3 -117z m-295 97 c-12
-16 -26 -30 -31 -30 -17 0 -9 31 19 68 25 33 27 34 30 14 2 -12 -6 -35 -18
-52z m91 -33 c-29 -49 -31 -50 -31 -23 0 16 12 50 27 75 24 40 28 43 31 23 2
-12 -10 -46 -27 -75z m115 53 c-3 -22 -17 -63 -30 -92 l-24 -53 -1 36 c-1 33
43 149 56 149 3 0 3 -18 -1 -40z m-295 -44 c-31 -31 -31 -31 -31 -6 0 13 12
37 28 53 26 28 27 28 30 6 3 -14 -7 -33 -27 -53z m-157 38 c7 -18 -7 -40 -36
-55 -15 -8 -20 -5 -27 13 -7 19 -4 26 18 40 32 22 37 22 45 2z m96 -2 c0 -10
-13 -31 -29 -46 l-28 -27 -7 23 c-4 17 1 29 20 46 30 27 44 28 44 4z m158 -85
c-22 -31 -23 -31 -26 -9 -2 13 7 39 20 58 23 33 23 34 26 9 2 -14 -7 -39 -20
-58z m-329 31 c6 -17 3 -26 -15 -40 -29 -24 -41 -23 -49 4 -6 16 -1 26 16 39
31 24 38 24 48 -3z m271 -2 c0 -14 -11 -37 -24 -52 -23 -28 -23 -28 -30 -6 -5
15 -1 32 14 52 26 36 40 38 40 6z m155 -62 c-16 -25 -35 -32 -35 -13 0 7 10
32 23 57 l22 45 3 -32 c2 -18 -4 -43 -13 -57z m-329 54 c5 -17 0 -28 -22 -46
l-28 -25 -10 22 c-7 17 -4 27 14 46 29 31 37 31 46 3z m87 2 c5 -19 -26 -70
-43 -70 -18 0 -15 36 4 62 25 33 32 34 39 8z m347 -45 c0 -44 -15 -60 -26 -30
-6 14 13 75 22 75 2 0 4 -20 4 -45z m-610 4 c12 -22 2 -42 -32 -60 -15 -8 -20
-5 -29 18 -9 23 -7 30 13 45 30 23 35 22 48 -3z m440 -25 c-7 -7 -21 -14 -32
-14 -19 0 -18 1 3 31 19 27 23 29 31 15 6 -11 5 -22 -2 -32z m-336 4 c10 -38
-47 -67 -61 -31 -4 10 2 23 16 35 30 23 37 23 45 -4z m90 -29 c-6 -10 -54 -12
-54 -2 0 4 10 17 22 30 l22 24 8 -22 c4 -11 6 -25 2 -30z m86 26 c0 -18 -5
-25 -20 -25 -24 0 -25 8 -3 32 21 23 23 23 23 -7z m90 -7 c0 -5 -12 -8 -27 -8
-26 0 -26 0 -8 20 14 16 20 17 27 8 4 -7 8 -16 8 -20z m160 7 c0 -8 -4 -15
-10 -15 -5 0 -7 7 -4 15 4 8 8 15 10 15 2 0 4 -7 4 -15z m-605 -25 c12 -24 13
-31 3 -35 -22 -8 -213 -54 -215 -51 -2 1 32 21 75 44 42 22 86 48 97 56 11 9
21 16 22 16 1 0 10 -14 18 -30z m100 -21 c-4 -5 -16 -9 -28 -9 -21 1 -21 1 -3
15 20 15 41 11 31 -6z m325 2 c0 -5 -7 -14 -15 -21 -8 -7 -15 -10 -15 -7 0 3
-3 12 -6 21 -4 12 0 16 15 16 12 0 21 -4 21 -9z m68 -2 c-2 -6 -8 -10 -13 -10
-5 0 -11 4 -13 10 -2 6 4 11 13 11 9 0 15 -5 13 -11z m40 -25 c-2 -11 -13 -20
-26 -22 -26 -4 -27 1 -6 34 18 27 38 19 32 -12z m75 30 c9 -9 -15 -54 -29 -54
-20 0 -26 18 -14 40 10 19 31 26 43 14z m57 -12 c0 -10 -7 -27 -15 -38 -13
-18 -14 -17 -15 19 0 26 4 37 15 37 8 0 15 -8 15 -18z m95 2 c25 -25 15 -58
-17 -62 -16 -2 -28 1 -28 6 0 5 -3 24 -6 41 -6 27 -4 31 14 31 11 0 28 -7 37
-16z m-515 -9 c-7 -8 -17 -12 -22 -9 -6 4 -5 10 3 15 22 14 33 10 19 -6z m90
0 c-12 -15 -30 -12 -30 6 0 5 10 9 21 9 18 0 19 -2 9 -15z m50 -27 c0 -4 -11
-8 -25 -8 -29 0 -30 3 -12 30 11 19 13 19 25 3 6 -9 12 -20 12 -25z m73 23 c6
-24 0 -31 -25 -31 -21 0 -22 4 -6 30 16 25 24 25 31 1z m567 -12 c653 -115
1162 -452 1275 -843 12 -42 16 -82 13 -137 -6 -100 -39 -170 -115 -239 -59
-54 -78 -59 -44 -12 68 97 80 207 36 338 -36 108 -102 204 -219 319 -244 241
-613 420 -1041 505 -153 30 -145 26 -145 67 l0 36 63 -7 c34 -4 114 -16 177
-27z m-816 5 c8 -20 8 -19 -26 -28 -31 -7 -45 8 -28 29 17 20 46 19 54 -1z
m86 -4 c0 -15 -7 -20 -25 -20 -27 0 -32 9 -13 28 18 18 38 14 38 -8z m396 -27
c-14 -14 -23 4 -13 27 l10 25 5 -23 c2 -13 1 -26 -2 -29z m-576 29 c0 -5 -12
-15 -26 -22 -22 -12 -27 -12 -34 0 -7 11 -4 17 8 22 24 9 52 9 52 0z m-85 -31
c-11 -10 -85 -25 -85 -17 0 13 76 44 85 35 6 -6 6 -12 0 -18z m-85 3 c0 -11
-73 -35 -182 -58 -62 -14 -124 -28 -138 -31 -72 -16 55 29 167 59 132 36 153
40 153 30z m290 -41 c0 -8 -13 -13 -32 -13 l-31 0 23 25 c24 25 39 20 40 -12z
m50 27 c0 -12 -28 -25 -36 -17 -9 9 6 27 22 27 8 0 14 -5 14 -10z m78 -9 c-9
-15 -15 -17 -25 -9 -20 16 -15 28 12 28 22 0 24 -2 13 -19z m82 12 c0 -5 -5
-15 -10 -23 -9 -13 -11 -13 -19 0 -5 8 -7 18 -5 22 6 10 34 11 34 1z m70 -1
c0 -13 -12 -22 -22 -16 -10 6 -1 24 13 24 5 0 9 -4 9 -8z m-372 -25 c3 -13 -3
-17 -27 -17 -36 0 -48 15 -24 29 25 15 47 9 51 -12z m32 13 c0 -5 -2 -10 -4
-10 -3 0 -8 5 -11 10 -3 6 -1 10 4 10 6 0 11 -4 11 -10z m144 -6 c9 -23 8 -24
-19 -24 -23 0 -24 2 -13 20 15 24 24 25 32 4z m86 -21 c0 -7 -9 -13 -20 -13
-23 0 -24 4 -9 32 9 17 13 18 20 7 5 -8 9 -20 9 -26z m76 -10 c-2 -3 -14 -3
-25 -1 -21 3 -21 4 -5 27 l17 24 9 -23 c5 -13 6 -25 4 -27z m74 5 c0 -13 -8
-18 -25 -18 -29 0 -31 7 -9 39 13 18 18 20 25 10 5 -8 9 -22 9 -31z m68 9 c2
-18 -2 -29 -13 -33 -26 -10 -38 9 -24 40 15 32 33 29 37 -7z m-578 18 c0 -13
-65 -35 -124 -41 -131 -13 -47 19 117 45 4 0 7 -1 7 -4z m654 -17 c11 -42 7
-49 -21 -46 -28 3 -40 25 -29 54 9 22 43 17 50 -8z m68 -2 c4 -6 8 -21 8 -34
0 -20 -4 -23 -27 -20 -25 3 -28 8 -31 41 -3 36 -2 38 20 32 13 -4 26 -13 30
-19z m203 -21 c417 -89 764 -261 995 -495 140 -141 208 -260 231 -402 19 -115
-25 -224 -119 -295 -54 -41 -72 -42 -39 -3 63 74 74 211 28 332 -54 140 -220
334 -381 444 -226 154 -517 283 -803 355 -78 19 -87 24 -87 44 0 13 -3 31 -6
40 -8 19 -1 18 181 -20z m-905 15 c0 -5 -4 -10 -10 -10 -5 0 -10 5 -10 10 0 6
5 10 10 10 6 0 10 -4 10 -10z m-250 -19 c-8 -5 -51 -16 -95 -26 -44 -9 -89
-19 -100 -21 -17 -4 -18 -4 -3 6 19 11 163 48 193 49 16 0 17 -1 5 -8z m265
-12 c10 -15 3 -19 -54 -26 -56 -6 -70 8 -23 25 37 14 69 14 77 1z m95 7 c0 -2
3 -11 6 -20 5 -12 -1 -16 -23 -16 -36 0 -46 9 -32 27 10 12 49 19 49 9z m45
-6 c-3 -5 -10 -10 -16 -10 -5 0 -9 5 -9 10 0 6 7 10 16 10 8 0 12 -4 9 -10z
m45 -22 c0 -5 -12 -8 -27 -8 -26 0 -26 0 -8 20 14 16 20 17 27 8 4 -7 8 -16 8
-20z m40 17 c-12 -15 -30 -12 -30 6 0 5 10 9 21 9 18 0 19 -2 9 -15z m90 8 c0
-5 -5 -15 -10 -23 -9 -13 -11 -13 -20 0 -15 22 -12 30 10 30 11 0 20 -3 20 -7z
m-455 -18 c-34 -15 -174 -32 -162 -20 9 10 121 33 162 33 l30 0 -30 -13z m405
-5 c0 -13 -7 -20 -20 -20 -18 0 -19 2 -8 20 7 11 16 20 20 20 5 0 8 -9 8 -20z
m123 5 c-6 -17 -25 -15 -31 3 -2 7 5 12 17 12 14 0 19 -5 14 -15z m67 1 c0 -8
-4 -18 -10 -21 -5 -3 -10 -4 -10 -1 0 2 -3 11 -6 20 -4 11 -1 16 10 16 9 0 16
-6 16 -14z m-107 -16 c4 -16 0 -20 -19 -20 -22 0 -23 3 -14 20 6 11 15 20 19
20 5 0 11 -9 14 -20z m76 -22 c1 -5 -8 -8 -19 -8 -23 0 -24 4 -8 33 11 21 11
21 19 2 4 -11 8 -23 8 -27z m70 -5 c1 -7 -8 -13 -19 -13 -23 0 -24 1 -8 35 11
24 13 25 19 8 4 -10 8 -24 8 -30z m31 38 c0 -6 -4 -13 -10 -16 -5 -3 -10 1
-10 9 0 9 5 16 10 16 6 0 10 -4 10 -9z m40 -49 c0 -20 -4 -22 -22 -16 -32 9
-33 10 -13 40 13 21 19 24 26 13 5 -8 9 -24 9 -37z m47 40 c7 -4 16 -23 19
-41 6 -30 5 -32 -16 -29 -16 2 -26 12 -31 32 -11 41 0 56 28 38z m-967 -11
c-18 -10 -161 -33 -167 -28 -4 5 131 34 162 36 16 0 17 -1 5 -8z m1050 -42 c0
-22 -4 -39 -9 -39 -15 0 -41 42 -41 66 0 17 5 20 25 16 22 -4 25 -10 25 -43z
m-740 26 c-9 -10 -31 -15 -73 -15 -93 0 -52 25 47 29 33 1 37 -1 26 -14z m80
-5 c10 -18 8 -20 -25 -20 -38 0 -46 13 -17 29 24 15 30 14 42 -9z m-235 0 c-3
-6 -42 -9 -88 -8 -75 1 -78 2 -32 8 80 11 127 11 120 0z m280 0 c-3 -5 -10
-10 -16 -10 -5 0 -9 5 -9 10 0 6 7 10 16 10 8 0 12 -4 9 -10z m49 -6 c9 -23 8
-24 -19 -24 -27 0 -32 9 -13 28 16 16 25 15 32 -4z m44 5 c-2 -6 -8 -10 -13
-10 -5 0 -11 4 -13 10 -2 6 4 11 13 11 9 0 15 -5 13 -11z m693 -23 c68 -19
164 -48 212 -65 100 -34 384 -178 491 -248 90 -60 301 -270 345 -346 112 -192
112 -376 -2 -458 -60 -44 -70 -38 -42 23 108 232 -162 594 -625 840 -135 72
-292 139 -418 178 -58 18 -103 37 -106 46 -11 28 -6 64 7 64 8 0 69 -15 138
-34z m-601 9 c-7 -8 -16 -15 -20 -15 -4 0 -10 7 -14 15 -4 11 2 15 21 15 21 0
24 -2 13 -15z m80 -5 c0 -4 -6 -13 -14 -19 -11 -9 -15 -7 -19 8 -3 11 -3 22 0
25 7 6 33 -4 33 -14z m-767 3 c-7 -2 -19 -2 -25 0 -7 3 -2 5 12 5 14 0 19 -2
13 -5z m641 -8 c4 -11 -1 -15 -19 -15 -24 0 -32 10 -18 23 11 12 31 8 37 -8z
m80 -11 c8 -20 8 -24 -1 -24 -17 0 -35 19 -29 29 10 16 23 14 30 -5z m115 -5
c-9 -17 -13 -19 -20 -8 -14 22 -11 29 11 29 18 0 19 -3 9 -21z m-714 1 c-73
-12 -127 -12 -120 0 3 6 43 9 88 9 78 -2 79 -2 32 -9z m200 0 c-3 -5 -35 -10
-71 -10 -41 0 -63 4 -59 10 3 6 35 10 71 10 41 0 63 -4 59 -10z m112 0 c13 0
13 -3 3 -15 -13 -16 -48 -18 -90 -5 -24 7 -24 7 10 18 19 5 41 8 48 6 8 -2 21
-4 29 -4z m366 -10 c4 -14 0 -20 -12 -20 -25 0 -33 11 -20 27 16 18 26 16 32
-7z m71 -12 c5 -21 3 -28 -8 -28 -22 0 -28 17 -16 41 13 24 15 23 24 -13z m36
23 c0 -17 -18 -21 -24 -6 -3 9 0 15 9 15 8 0 15 -4 15 -9z m-425 -39 c-35 -5
-43 5 -19 23 17 12 21 12 32 -3 11 -15 10 -17 -13 -20z m64 29 c9 -6 10 -10 2
-16 -15 -8 -41 1 -41 15 0 12 20 13 39 1z m391 -21 c0 -20 -5 -30 -15 -30 -16
0 -19 17 -9 44 10 26 24 18 24 -14z m60 11 c15 -29 12 -61 -6 -61 -12 0 -44
54 -44 75 0 14 41 3 50 -14z m-361 -17 c-9 -11 -15 -11 -25 -3 -21 18 -17 27
11 21 20 -3 23 -7 14 -18z m432 -28 c10 -62 -32 -43 -46 21 -6 31 -5 32 17 24
16 -6 25 -19 29 -45z m-1691 28 c-106 -14 -177 -18 -166 -7 11 11 93 20 181
21 l80 0 -95 -14z m720 7 c-14 -4 -47 -5 -75 -1 -47 7 -45 7 25 8 48 0 66 -2
50 -7z m498 -11 c10 -16 10 -20 -2 -20 -31 0 -47 12 -35 26 15 19 22 18 37 -6z
m-328 0 c0 -12 -74 -12 -110 0 -18 6 -7 8 43 9 38 1 67 -3 67 -9z m460 3 c0
-5 -5 -15 -10 -23 -9 -13 -11 -13 -20 0 -15 22 -12 30 10 30 11 0 20 -3 20 -7z
m386 -1 c15 -9 23 -71 11 -79 -15 -9 -37 27 -37 59 0 29 6 33 26 20z m-1047
-18 c9 -8 -75 -2 -94 6 -13 6 -1 7 35 3 30 -3 57 -7 59 -9z m331 6 c0 -17 -27
-23 -77 -15 -33 5 -42 9 -32 16 19 12 109 11 109 -1z m286 -28 c-3 -2 -14 -1
-26 3 -17 6 -19 9 -9 22 11 13 14 13 26 -3 7 -10 11 -19 9 -22z m112 14 c3
-12 -1 -17 -10 -14 -7 3 -15 13 -16 22 -3 12 1 17 10 14 7 -3 15 -13 16 -22z
m-1019 -2 c6 -5 -45 -23 -169 -58 -129 -37 -193 -50 -185 -36 12 19 132 80
185 94 47 12 154 12 169 0z m711 6 c13 -8 13 -11 0 -24 -13 -13 -22 -14 -55
-5 -37 10 -38 12 -20 25 22 16 53 18 75 4z m280 -32 c0 -11 -21 -10 -39 1 -13
8 -13 12 -1 26 13 16 15 16 27 -1 7 -10 13 -21 13 -26z m567 -14 c212 -75 460
-208 608 -327 216 -174 343 -360 353 -519 6 -103 -24 -166 -88 -181 l-25 -6 0
102 c0 97 -2 105 -37 177 -69 141 -220 303 -403 432 -123 87 -461 262 -549
284 -30 7 -46 31 -46 69 0 25 2 26 33 20 17 -4 87 -27 154 -51z m-1117 36 c19
-12 -76 -12 -105 0 -14 6 -5 9 35 9 30 0 62 -4 70 -9z m619 -37 c1 -15 -25
-17 -34 -3 -3 5 -1 20 6 32 12 22 12 22 20 3 4 -11 8 -26 8 -32z m31 32 c0 -8
-4 -15 -9 -15 -5 0 -11 7 -15 15 -3 9 0 15 9 15 8 0 15 -7 15 -15z m-1571 1
c-10 -9 -153 -65 -157 -62 -7 8 46 38 90 51 42 13 76 19 67 11z m714 -3 c-7
-2 -21 -2 -30 0 -10 3 -4 5 12 5 17 0 24 -2 18 -5z m533 -10 c20 -27 17 -34
-13 -27 -37 9 -38 11 -23 29 16 19 20 19 36 -2z m43 8 c9 -6 10 -11 2 -15 -13
-8 -31 1 -31 15 0 11 11 11 29 0z m-690 -15 c29 -8 55 -16 57 -19 7 -7 -263
-116 -361 -145 -116 -34 -249 -55 -319 -50 l-49 3 78 58 c42 31 87 57 99 57
32 0 250 55 331 84 83 29 94 30 164 12z m265 -3 c11 -3 14 -9 9 -14 -10 -10
-100 8 -118 24 -10 8 68 1 109 -10z m175 8 c11 -7 10 -10 -4 -18 -18 -11 -95
5 -95 19 0 11 82 10 99 -1z m561 -5 c0 -8 3 -21 6 -30 4 -10 1 -16 -9 -16 -21
0 -30 16 -22 40 7 23 25 27 25 6z m66 -22 c8 -20 14 -40 12 -46 -6 -16 -47 25
-54 55 -10 42 23 35 42 -9z m-1641 16 c-87 -38 -165 -67 -165 -60 0 8 25 19
125 54 44 16 72 20 40 6z m1313 -11 c17 -26 11 -32 -22 -23 -21 5 -24 9 -15
25 13 24 21 24 37 -2z m40 2 c3 -8 -1 -12 -9 -9 -7 2 -15 10 -17 17 -3 8 1 12
9 9 7 -2 15 -10 17 -17z m352 -30 c14 -49 13 -53 -9 -42 -10 6 -24 25 -30 42
-15 43 -14 48 9 42 12 -3 24 -19 30 -42z m-893 5 c10 -10 -23 -7 -72 6 -25 7
-45 15 -45 19 0 8 107 -15 117 -25z m307 28 c13 -5 14 -9 5 -20 -14 -17 -38
-18 -76 -3 -22 8 -24 12 -13 19 17 11 61 13 84 4z m-145 -20 c3 -3 0 -9 -7
-16 -13 -13 -105 9 -96 24 5 8 93 1 103 -8z m435 -35 c-5 -9 -43 1 -50 13 -3
5 0 16 7 24 11 14 15 13 30 -7 10 -13 16 -27 13 -30z m24 33 c6 -18 -15 -14
-22 4 -4 10 -1 14 6 12 6 -2 14 -10 16 -16z m332 -37 c0 -7 3 -21 7 -30 5 -15
3 -16 -14 -7 -20 11 -46 76 -35 87 8 8 42 -33 42 -50z m-992 10 c6 -5 -117
-71 -248 -133 -263 -125 -530 -184 -684 -152 l-58 12 48 49 c48 49 49 49 114
49 170 0 380 57 644 173 78 35 78 35 130 20 28 -8 52 -16 54 -18z m441 26 c12
-8 13 -12 1 -26 -9 -11 -22 -14 -44 -9 -43 9 -49 14 -35 30 13 16 57 18 78 5z
m-1269 -21 c-19 -11 -42 -19 -50 -19 -8 0 3 9 25 20 52 24 70 24 25 -1z m1533
-9 c18 -37 12 -45 -19 -24 -19 12 -22 19 -13 34 13 25 15 24 32 -10z m28 16
c-1 -12 -15 -9 -19 4 -3 6 1 10 8 8 6 -3 11 -8 11 -12z m313 -36 c9 -43 3 -62
-15 -44 -13 13 -29 80 -21 88 13 13 28 -4 36 -44z m-915 25 c28 -10 31 -14 19
-24 -12 -9 -24 -8 -56 6 -23 9 -42 20 -42 25 0 10 40 7 79 -7z m178 1 c3 -3 2
-10 -2 -16 -8 -14 -46 -14 -82 0 -22 8 -25 12 -13 20 14 9 86 6 97 -4z m203
-37 c0 -10 -49 0 -56 12 -3 5 0 16 7 24 12 14 15 14 31 -6 10 -12 18 -26 18
-30z m25 30 c3 -5 2 -10 -4 -10 -5 0 -13 5 -16 10 -3 6 -2 10 4 10 5 0 13 -4
16 -10z m240 -21 c18 -34 15 -45 -10 -35 -19 7 -29 31 -21 51 8 22 14 19 31
-16z m390 -6 c89 -37 288 -138 374 -190 216 -131 433 -350 501 -507 31 -73 44
-156 31 -204 -14 -50 -21 -55 -66 -46 -31 6 -35 10 -35 38 -1 125 -90 275
-262 441 -150 145 -272 229 -524 359 -99 51 -113 62 -118 88 -13 68 -14 68 99
21z m-1092 7 c20 -8 37 -17 37 -21 0 -4 -51 -40 -112 -80 -345 -226 -729 -344
-952 -295 -41 10 -85 25 -96 34 l-21 17 32 43 c21 29 37 41 47 37 8 -3 47 -10
86 -16 193 -27 533 70 813 231 65 38 120 68 123 67 3 -1 22 -9 43 -17z m762
-10 c16 -32 20 -60 7 -60 -8 0 -52 71 -52 84 0 18 32 2 45 -24z m-1795 12 c0
-4 -10 -13 -22 -21 -23 -14 -23 -14 -4 8 20 22 26 25 26 13z m1349 -1 c17 -11
7 -41 -13 -41 -19 0 -66 21 -66 30 0 21 52 28 79 11z m203 -16 c15 -33 4 -42
-26 -21 -16 10 -23 22 -20 31 9 23 33 18 46 -10z m-335 1 c4 -4 0 -13 -9 -22
-13 -14 -19 -13 -51 2 -21 10 -37 22 -37 27 0 10 87 4 97 -7z m370 8 c-3 -3
-12 -4 -19 -1 -8 3 -5 6 6 6 11 1 17 -2 13 -5z m269 -24 c22 -48 26 -70 12
-65 -12 5 -25 26 -56 88 -2 5 4 7 14 5 10 -2 24 -14 30 -28z m-1831 7 c-50
-35 -75 -49 -75 -44 0 9 72 57 85 57 5 0 1 -6 -10 -13z m1425 -16 c0 -4 -6
-15 -13 -25 -13 -17 -15 -17 -46 -1 -31 16 -32 17 -16 35 14 15 22 17 46 8 16
-5 29 -13 29 -17z m190 -23 c0 -23 -12 -23 -35 2 -10 11 -15 26 -11 36 6 15 8
15 26 -1 11 -10 20 -26 20 -37z m280 -6 c12 -45 12 -52 1 -52 -8 0 -17 20 -49
99 -4 11 -1 11 16 2 12 -6 26 -28 32 -49z m-1869 29 c-35 -27 -81 -53 -81 -46
0 6 90 65 99 65 4 0 -5 -9 -18 -19z m1106 -13 c7 -6 13 -14 13 -17 0 -11 -229
-179 -313 -230 -384 -235 -792 -317 -969 -195 -53 37 -60 53 -41 92 18 37 30
39 83 12 122 -62 386 -36 642 65 120 48 296 142 423 228 102 68 126 75 162 45z
m132 11 c35 -12 39 -24 13 -38 -12 -6 -28 -5 -51 5 -28 12 -31 16 -21 29 15
18 18 18 59 4z m681 -45 c18 -53 7 -77 -13 -30 -10 22 -20 51 -24 65 -6 23 -4
24 10 13 9 -8 21 -29 27 -48z m-446 9 c9 -22 -18 -33 -52 -21 l-32 12 21 22
c18 19 25 21 40 11 10 -6 21 -17 23 -24z m198 -6 c29 -44 21 -62 -14 -31 -26
24 -40 52 -33 64 11 17 19 11 47 -33z m-341 7 c30 -15 30 -16 13 -35 -21 -23
-33 -24 -62 -3 -22 15 -22 17 -6 35 21 23 18 23 55 3z m407 -32 c24 -43 24
-64 -1 -44 -7 6 -23 30 -36 52 -21 39 -22 42 -5 38 10 -2 29 -23 42 -46z m232
-3 c6 -22 9 -46 7 -52 -6 -15 -37 55 -37 83 0 33 18 14 30 -31z m-1980 37 c0
-2 -12 -11 -27 -20 l-28 -17 24 20 c23 21 31 25 31 17z m1200 -11 c17 -9 30
-19 30 -23 0 -9 -161 -150 -245 -214 -113 -85 -250 -170 -370 -228 -206 -100
-365 -142 -530 -142 -165 0 -271 45 -314 135 -18 37 -19 49 -10 76 l11 33 32
-30 c118 -113 333 -121 627 -22 210 70 446 203 644 364 44 35 84 65 88 65 4 1
21 -6 37 -14z m358 -8 c15 -12 16 -37 1 -37 -11 0 -48 39 -49 52 0 9 29 -1 48
-15z m67 3 c3 -5 1 -10 -4 -10 -6 0 -11 5 -11 10 0 6 2 10 4 10 3 0 8 -4 11
-10z m651 -135 c323 -191 571 -467 591 -658 7 -65 0 -72 -61 -60 -36 8 -40 12
-68 83 -62 155 -202 319 -404 470 -83 63 -281 190 -313 202 -6 2 -13 27 -17
56 l-7 54 101 -51 c55 -28 135 -71 178 -96z m-460 84 c30 -60 26 -74 -9 -27
-41 54 -50 78 -33 78 9 0 27 -23 42 -51z m-1921 11 c-10 -11 -23 -20 -28 -20
-6 0 0 11 13 25 27 29 42 25 15 -5z m1530 18 c28 -13 32 -30 10 -48 -11 -9
-22 -9 -49 0 -35 11 -35 12 -20 36 19 27 23 28 59 12z m104 -17 l15 -24 -32
17 c-18 9 -30 21 -26 27 8 14 25 7 43 -20z m-209 -21 c0 -14 -260 -259 -341
-322 -103 -81 -290 -195 -395 -243 -371 -169 -702 -163 -820 15 -31 46 -45
101 -35 137 l7 26 21 -35 c26 -45 78 -84 145 -110 75 -30 236 -36 345 -14 303
62 581 212 888 479 l120 104 33 -15 c17 -9 32 -19 32 -22z m310 30 c22 -12
115 -130 103 -130 -13 0 -58 42 -98 93 -38 48 -39 55 -5 37z m235 -41 c36 -71
26 -85 -13 -17 -35 60 -37 68 -22 68 5 0 21 -23 35 -51z m-1935 38 c0 -2 -15
-16 -32 -33 l-33 -29 29 33 c28 30 36 37 36 29z m1685 -34 c33 -37 31 -47 -4
-28 -34 17 -45 31 -36 45 9 15 14 13 40 -17z m-1681 -4 c-10 -11 -28 -25 -39
-31 -12 -5 -7 3 13 21 37 35 55 42 26 10z m1571 9 c27 -12 32 -27 13 -46 -16
-16 -40 -15 -63 2 -19 14 -19 15 -1 35 22 25 19 24 51 9z m232 -32 c43 -49 78
-106 66 -106 -4 0 -30 28 -57 63 -71 88 -70 87 -58 87 6 0 28 -20 49 -44z
m182 -11 c23 -62 26 -74 12 -59 -16 15 -51 114 -42 114 5 0 19 -25 30 -55z
m-544 23 c14 -6 25 -16 25 -21 0 -32 -248 -289 -385 -400 -316 -255 -626 -389
-900 -389 -246 -1 -380 97 -411 300 -4 23 -4 42 -1 42 3 0 19 -24 35 -53 49
-87 150 -142 290 -158 347 -40 828 200 1227 609 43 45 82 82 87 82 4 0 19 -5
33 -12z m591 -49 c25 -81 9 -73 -21 12 -10 27 -11 39 -3 37 6 -2 17 -24 24
-49z m-356 -6 c96 -102 117 -128 90 -112 -174 105 -179 109 -168 135 6 13 16
24 22 24 7 0 32 -21 56 -47z m222 -29 c47 -69 65 -112 28 -64 -55 70 -102 142
-89 138 8 -2 35 -35 61 -74z m176 4 c5 -27 6 -48 2 -48 -4 0 -10 13 -13 29 -3
16 -9 42 -13 57 -4 20 -3 26 4 19 5 -5 14 -31 20 -57z m-548 37 c17 -9 30 -18
30 -21 0 -4 -37 -54 -82 -112 -423 -539 -1001 -854 -1409 -768 -154 33 -257
127 -295 268 -7 29 -14 64 -14 78 0 20 5 14 24 -25 41 -88 136 -160 253 -190
74 -19 232 -19 323 0 356 75 756 340 1067 708 37 42 68 77 70 77 2 0 17 -7 33
-15z m318 -134 c57 -61 100 -111 96 -111 -9 0 -136 120 -204 194 -46 49 -50
56 -25 43 17 -9 76 -66 133 -126z m350 82 c158 -100 253 -174 373 -293 64 -63
135 -144 158 -179 39 -61 85 -166 79 -181 -2 -4 -31 0 -66 7 -51 12 -65 19
-72 39 -44 115 -291 369 -490 504 -34 23 -65 52 -70 65 -15 41 -23 95 -13 95
6 0 51 -26 101 -57z m-246 -11 c33 -51 60 -105 46 -92 -15 14 -97 150 -90 150
4 0 24 -26 44 -58z m-2022 45 c0 -2 -10 -12 -22 -23 l-23 -19 19 23 c18 21 26
27 26 19z m-10 -47 c-6 -11 -13 -20 -16 -20 -2 0 0 9 6 20 6 11 13 20 16 20 2
0 0 -9 -6 -20z m31 2 c-5 -10 -18 -25 -28 -33 -12 -10 -11 -5 6 19 24 35 38
43 22 14z m1954 -88 c37 -41 70 -72 73 -69 3 3 -8 20 -24 38 -17 17 -36 41
-43 52 -7 11 10 -5 38 -35 47 -51 65 -80 41 -65 -16 10 -12 -6 7 -29 10 -12
-16 11 -56 49 -40 39 -91 92 -114 119 -67 79 -3 30 78 -60z m110 34 c14 -26
25 -51 25 -55 0 -11 -69 110 -70 122 0 13 15 -9 45 -67z m26 6 c12 -25 19 -48
16 -50 -2 -2 -14 18 -25 46 -26 63 -18 66 9 4z m38 -34 c0 -10 -3 -8 -9 5 -12
27 -12 43 0 25 5 -8 9 -22 9 -30z m-2199 -10 c-6 -11 -13 -20 -16 -20 -2 0 0
9 6 20 6 11 13 20 16 20 2 0 0 -9 -6 -20z m2405 -99 c111 -88 227 -204 292
-292 46 -62 77 -119 66 -119 -5 0 -41 12 -81 27 -66 25 -79 35 -132 98 -32 39
-107 117 -168 173 -97 90 -111 108 -121 150 -7 26 -15 56 -18 66 -5 19 -4 19
27 -1 17 -11 78 -57 135 -102z m-291 73 c5 -14 4 -15 -9 -4 -17 14 -19 20 -6
20 5 0 12 -7 15 -16z m382 -321 c73 -84 73 -89 4 -52 -90 49 -159 114 -187
177 -12 29 -23 57 -23 63 0 14 143 -117 206 -188z m2 -221 c60 -82 79 -118 46
-91 -21 17 -106 143 -128 189 -16 34 -16 34 1 10 10 -13 46 -62 81 -108z m102
-9 c44 -36 78 -69 75 -71 -6 -6 -55 32 -120 91 -75 69 -47 56 45 -20z m24 17
c4 0 4 4 1 10 -4 6 1 7 11 3 12 -4 14 -8 5 -11 -9 -3 -5 -12 11 -29 20 -22 20
-24 3 -15 -11 6 -40 29 -65 52 -37 34 -39 37 -9 16 20 -14 39 -26 43 -26z
m126 -20 c30 -16 49 -29 42 -30 -14 0 -112 48 -112 55 0 9 15 4 70 -25z m-117
-65 c43 -32 43 -44 0 -22 -33 18 -80 63 -95 92 -7 14 -1 11 23 -11 19 -17 51
-43 72 -59z m172 6 c-7 -7 -92 29 -105 44 -7 8 14 3 49 -13 33 -14 58 -28 56
-31z m106 41 c-7 -2 -18 1 -23 6 -8 8 -4 9 13 5 13 -4 18 -8 10 -11z m-13 -13
c42 -16 22 -18 -23 -2 -25 8 -45 17 -45 20 0 4 25 -2 68 -18z m120 -6 c-10 -2
-26 -2 -35 0 -10 3 -2 5 17 5 19 0 27 -2 18 -5z m-265 -23 c31 -12 50 -30 32
-30 -11 0 -85 40 -85 46 0 3 3 4 8 2 4 -2 24 -10 45 -18z m157 -2 c10 -6 3 -7
-20 -2 -19 3 -42 10 -50 16 -10 6 -3 7 20 2 19 -3 42 -10 50 -16z m93 5 c-7
-2 -19 -2 -25 0 -7 3 -2 5 12 5 14 0 19 -2 13 -5z m-118 -25 c6 -6 -1 -7 -20
-2 -16 3 -34 11 -40 16 -6 6 1 7 20 2 17 -3 35 -11 40 -16z m-139 -9 c8 -14
-10 -11 -32 6 -18 13 -18 14 4 8 12 -3 25 -9 28 -14z"/>
</g>
</svg>
